# xmcd
#
# Track frame offsets:
#	150
#	12817
#	28327
#	41517
#	57925
#	70864
#	89181
#	103827
#	116000
#	128312
#	142895
#	158098
#	171970
#	184240
#
# Disc length: 2633 seconds
#
# Revision: 0
# Processed by: cddbd v1.5.2PL0 Copyright (c) Steve Scherf et al.
# Submitted via: dBpowerAMP V4.0
#
DISCID=be0a470e
DTITLE=Julie Andrews - Love Me Tender
DYEAR=1982
DGENRE=Country
TTITLE0=Crazy
TTITLE1=Some Days Are Diamonds
TTITLE2=See The Funny Little Clown
TTITLE3=When I Dream
TTITLE4=(Hey Won't You Play) Another Somebody Done Somebody Wrong Song
TTITLE5=It Was Time
TTITLE6=You Don't Bring Me Flowers
TTITLE7=Love Me Tender
TTITLE8=I Wish I Could Hurt That Way Again
TTITLE9=The Valley That Time Forgot
TTITLE10=Blanket On The Ground
TTITLE11=Love Is A Place Where Two People Fall
TTITLE12=We Love Each Other
TTITLE13=Lyin' In My Arms
EXTD=
EXTT0=
EXTT1=
EXTT2=
EXTT3=
EXTT4=
EXTT5=
EXTT6=
EXTT7=
EXTT8=
EXTT9=
EXTT10=
EXTT11=
EXTT12=
EXTT13=
PLAYORDER=
